<svg width="72" height="90" viewBox="0 0 72 90" fill="none" xmlns="http://www.w3.org/2000/svg">
<path d="M36 0C16.118 0 0 16.118 0 36V82.8C0 86.777 3.224 90 7.2 90C11.176 90 14.4 86.776 14.4 82.8C14.4 78.824 17.624 75.6 21.6 75.6C25.576 75.6 28.8 78.824 28.8 82.8C28.8 86.776 32.024 90 36 90C39.977 90 43.2 86.776 43.2 82.8C43.2 78.824 46.423 75.6 50.4 75.6C54.377 75.6 57.599 78.824 57.599 82.8C57.599 86.776 60.823 90 64.799 90C68.775 90 71.999 86.776 71.999 82.8V36C72 16.118 55.884 0 36 0ZM21.6 46.8C17.624 46.8 14.4 41.158 14.4 34.2C14.4 27.242 17.624 21.6 21.6 21.6C25.576 21.6 28.8 27.242 28.8 34.2C28.8 41.158 25.576 46.8 21.6 46.8ZM50.4 46.8C46.422 46.8 43.2 41.158 43.2 34.2C43.2 27.242 46.423 21.6 50.4 21.6C54.377 21.6 57.599 27.242 57.599 34.2C57.6 41.158 54.377 46.8 50.4 46.8Z" fill="#F77F00"/>
<path d="M21.6 43.2C23.5882 43.2 25.2 41.5882 25.2 39.6C25.2 37.6118 23.5882 36 21.6 36C19.6118 36 18 37.6118 18 39.6C18 41.5882 19.6118 43.2 21.6 43.2Z" fill="#F77F00"/>
<path d="M50.4 43.2C52.3882 43.2 54 41.5882 54 39.6C54 37.6118 52.3882 36 50.4 36C48.4118 36 46.8 37.6118 46.8 39.6C46.8 41.5882 48.4118 43.2 50.4 43.2Z" fill="#F77F00"/>
</svg>
