<svg width="86" height="88" viewBox="0 0 86 88" fill="none" xmlns="http://www.w3.org/2000/svg">
<path fill-rule="evenodd" clip-rule="evenodd" d="M83.453 0.250002C82.0741 3.2969 81.2264 5.6445 80.8046 7.5117C79.8827 11.582 80.7851 13.7187 82.6054 15.5976C82.6249 15.621 82.6445 15.6445 82.6679 15.6718C93.9379 53.5198 72.0629 82.5348 44.3479 87.0238C22.9809 90.4808 9.9379 81.8676 3.9649 74.9218C1.6446 72.2226 0.378997 69.8788 0.308697 68.7577C0.254009 67.8788 1.00401 67.5311 1.7618 67.285C3.4532 66.7264 5.5626 66.8358 6.0509 66.871H6.07434C60.4843 77.559 73.7033 19.433 74.9183 15.41C75.1136 14.7654 75.2855 14.1834 75.4613 13.66C76.0551 11.8983 77.1449 9.08186 77.4847 0.776961C77.848 0.691023 78.3402 0.581651 78.7855 0.523051C80.1175 0.339461 82.0277 0.273051 83.4574 0.249611L83.453 0.250002Z" fill="#FFCC00"/>
</svg>
