<svg width="60" height="88" viewBox="0 0 60 88" fill="none" xmlns="http://www.w3.org/2000/svg">
<path fill-rule="evenodd" clip-rule="evenodd" d="M41.242 0.625C40.8982 0.79688 40.2615 1.793 38.6756 4.6406C38.199 5.48826 38.0975 5.57419 37.6756 5.48435C37.4139 5.42966 36.6483 5.25779 35.9647 5.10544C35.2616 4.94528 33.4295 4.77732 31.6991 4.71872C19.9221 4.30856 10.1681 9.35152 4.72609 18.6637C2.46829 22.527 2.72609 23.3512 6.46829 24.2496C15.48 26.4058 23.2963 24.7145 29.2413 19.3277C29.9171 18.7144 30.4952 18.2925 30.5265 18.3863C30.5577 18.484 30.0148 19.7066 29.3195 21.1011C25.2218 29.3159 20.5773 41.8471 17.1395 53.9681C16.6317 55.765 16.1434 57.3236 16.0614 57.4329C15.9754 57.5384 15.1317 57.6712 14.1864 57.7298C2.56139 58.429 -3.74361 71.6908 3.07339 81.0888C7.36639 87.0107 14.8464 89.1005 21.4254 86.2138C24.9449 84.6708 27.0543 82.6396 28.9918 78.9365C29.8199 77.3467 29.8785 77.3271 30.4254 78.4091C35.1715 87.7294 47.2184 90.0072 54.7774 83.0069C60.5157 77.6944 61.379 69.2218 56.8282 62.9018C54.1134 59.1362 49.2852 56.6166 44.7732 56.6166H43.8162L43.4568 55.7768C41.5466 51.3588 39.1912 42.3748 38.4256 36.6288C38.0545 33.8124 37.8982 25.3788 38.16 22.0668C38.6834 15.3871 40.0819 9.75781 42.4373 4.82081C43.7615 2.04741 43.8201 1.68801 43.0544 0.97311C42.5779 0.52389 41.7537 0.36719 41.242 0.625ZM27.574 8.1328C27.3279 8.16796 26.4529 8.28514 25.6287 8.39452C19.3553 9.22655 12.1057 13.4804 9.48769 17.8633C9.21425 18.3243 17.8627 15.4961 21.7607 13.8477C27.3076 11.5079 32.8587 8.42192 31.9717 8.17582C31.5342 8.05473 28.3552 8.01952 27.574 8.1328ZM27.8045 14.9336C24.8631 16.6367 19.8436 18.5195 11.3165 21.1172L9.98836 21.5235L10.961 21.6445C17.7735 22.5156 23.914 20.3047 28.285 15.3984C29.2928 14.2656 29.1677 14.1445 27.8045 14.9336ZM34.7693 17.332C32.0427 21.8632 26.699 34.566 23.5113 44.07C22.1636 48.0856 19.4449 57.25 19.4449 57.761C19.4449 57.8938 20.2652 58.3977 21.2887 58.886C24.984 60.6516 27.1246 62.636 28.691 65.7493C29.5347 67.4212 29.5542 67.4251 30.2691 65.9212C32.1871 61.89 35.0152 59.2064 38.98 57.6634C39.8003 57.3431 40.4722 57.0228 40.4722 56.9446C40.4722 56.8704 40.269 56.2689 40.019 55.6087C35.3237 43.1747 33.6479 30.0387 35.2768 18.3857C35.4214 17.3271 35.5073 16.4287 35.4643 16.3857C35.4214 16.3428 35.1091 16.7695 34.7693 17.332ZM10.1833 61.996C8.38246 62.6601 5.99966 64.9062 4.91765 66.9648C2.98015 70.6523 3.08956 76.539 5.10124 76.7304C6.35124 76.8515 6.81215 75.914 6.51145 73.8515C5.9802 70.1601 7.76535 66.6484 11.0856 64.8554C12.6754 63.996 12.9567 63.371 12.277 62.2226C12.0231 61.7968 11.0232 61.6874 10.1833 61.996ZM37.0353 62.4804C35.4455 63.5351 33.6955 66.0781 32.9298 68.4492C32.2579 70.5273 32.461 74.9726 33.2696 75.8359C34.2462 76.8789 35.8399 75.8398 35.629 74.2968C35.3126 71.9804 35.3126 71.4648 35.6095 70.1132C36.0899 67.9452 36.6368 66.9687 38.297 65.3202C39.9493 63.6835 40.1329 63.1561 39.3322 62.3514C38.7423 61.7654 38.0588 61.8007 37.0353 62.4804Z" fill="#C81D25"/>
</svg>
