<svg width="70" height="92" viewBox="0 0 70 92" fill="none" xmlns="http://www.w3.org/2000/svg">
<path fill-rule="evenodd" clip-rule="evenodd" d="M34.27 10.945C31.9966 5.6833 28.8481 3.4411 28.8481 3.4411C28.1528 2.93329 27.1762 3.08172 26.6684 3.77704C26.1606 4.47235 26.309 5.45284 27.0043 5.96064C27.0043 5.96064 33.0434 10.5114 33.4184 21.8006C14.9614 22.6288 0.227448 37.8746 0.227448 56.5386C0.227448 75.7296 15.8094 91.3116 35.0004 91.3116C54.1954 91.3116 69.7734 75.7296 69.7734 56.5386C69.7734 37.8626 55.0234 22.6086 36.5464 21.8006C36.5113 20.6795 36.4293 19.6131 36.3043 18.6053C43.816 18.285 48.6243 15.8905 51.7183 13.1131C56.8941 8.46865 57.3589 2.64814 57.3589 2.64814C57.4331 1.8083 56.8276 1.06224 55.9917 0.960645C46.6987 -0.148755 41.2107 2.25364 37.9367 5.40204C36.1398 7.12864 34.9992 9.10904 34.2726 10.9411L34.27 10.945ZM57.958 46.625C58.7627 48.4766 59.3447 50.4492 59.6807 52.5039C59.8174 53.3555 60.6221 53.9336 61.4737 53.7969C62.3253 53.6563 62.9034 52.8516 62.7628 52.0039C62.3839 49.6875 61.7276 47.4687 60.8214 45.3828C60.4777 44.5937 59.5597 44.2305 58.7667 44.5703C57.9737 44.9141 57.6105 45.8359 57.9542 46.625H57.958ZM35.001 31.539C42.8096 31.539 49.786 35.1249 54.372 40.7382C54.915 41.4062 55.8993 41.5077 56.5673 40.9609C57.2353 40.4179 57.3368 39.4297 56.79 38.7656C51.6298 32.4492 43.782 28.4136 35.001 28.4136C34.1377 28.4136 33.4385 29.1128 33.4385 29.9761C33.4385 30.8393 34.1377 31.539 35.001 31.539Z" fill="#F77F00"/>
</svg>
