<svg width="80" height="90" viewBox="0 0 80 90" fill="none" xmlns="http://www.w3.org/2000/svg">
<path d="M68.645 24.152C56.055 17.9567 49.446 23.316 41.848 25.3356C41.8441 24.6715 41.8285 24.0114 41.7894 23.3434C41.5667 20.2575 40.9027 17.1168 39.598 14.152C38.305 11.1872 36.3441 8.46059 33.9339 6.23009C33.8831 6.18321 33.8206 6.13243 33.7659 6.08556C32.5354 5.1129 30.7503 5.32384 29.7776 6.55431C28.805 7.78481 29.0159 9.56991 30.2464 10.5426L30.2698 10.5582C32.2503 12.1207 33.9104 14.0543 35.1292 16.3121C36.3558 18.566 37.1409 21.1207 37.5589 23.7887C37.6253 24.2614 37.6683 24.738 37.7113 25.2145C30.2972 23.1129 23.6993 18.0778 11.3563 24.152C-0.569741 30.0192 0.00825953 43.699 1.63356 54.707C3.21556 65.41 9.98126 84.184 21.3996 89.121C28.423 92.1562 32.8646 86.3554 40.0016 86.3554C47.1813 86.3554 51.5796 92.1562 58.5996 89.121C70.0216 84.1835 76.7876 65.41 78.3656 54.707C79.9945 43.699 80.5726 30.019 68.6468 24.152L68.645 24.152ZM8.633 56.281C8.633 56.281 6.0041 43.89 10.8439 34.719C10.8439 34.719 15.8634 24.324 30.5859 30.1995C30.5859 30.1995 11.941 30.3474 8.633 56.281ZM41.184 15.691C41.184 15.691 37.1332 7.42539 47.7543 2.01099C58.3753 -3.39921 69.9383 3.80789 69.9383 3.80789C69.9383 3.80789 66.9656 2.97586 60.1649 12.0657C53.3641 21.1555 47.6959 21.8001 42.0949 17.4641C42.0949 17.4641 44.7668 8.44849 56.5049 5.95209C56.5049 5.95209 45.3169 5.3349 41.1849 15.6904L41.184 15.691Z" fill="#C81D25"/>
</svg>
